<?xml version="1.0" standalone="no"?>
<!DOCTYPE svg PUBLIC "-//W3C//DTD SVG 20010904//EN"
 "http://www.w3.org/TR/2001/REC-SVG-20010904/DTD/svg10.dtd">
<svg version="1.0" xmlns="http://www.w3.org/2000/svg"
 width="420.000000pt" height="420.000000pt" viewBox="0 0 420.000000 420.000000"
 preserveAspectRatio="xMidYMid meet">

<g transform="translate(0.000000,420.000000) scale(0.100000,-0.100000)"
fill="#000000" stroke="none">
<path d="M2075 3710 c-3 -5 -1 -10 4 -10 6 0 11 5 11 10 0 6 -2 10 -4 10 -3 0
-8 -4 -11 -10z"/>
<path d="M2115 3240 c-127 -18 -332 -42 -377 -45 -26 -1 -53 -6 -60 -12 -24
-20 -90 -33 -105 -21 -10 8 -18 7 -31 -6 -10 -9 -26 -16 -36 -16 -9 0 -42 -12
-71 -26 -45 -23 -57 -25 -70 -14 -8 7 -19 10 -22 6 -4 -4 -1 -11 7 -16 13 -8
12 -10 -3 -10 -31 0 -77 -30 -77 -50 0 -13 -19 -28 -66 -51 -80 -40 -94 -58
-94 -126 0 -73 22 -110 98 -168 55 -41 72 -63 104 -125 21 -41 47 -82 57 -90
10 -8 47 -37 81 -63 l62 -48 104 -2 104 -3 63 -61 c34 -33 76 -69 94 -79 33
-18 53 -57 53 -103 0 -44 -13 -55 -58 -48 -30 5 -43 3 -53 -10 -23 -27 -75
-43 -144 -43 -96 0 -130 17 -159 82 -13 29 -28 66 -31 81 -4 15 -11 27 -15 27
-10 0 4 -67 21 -103 11 -24 11 -30 -1 -37 -16 -10 -37 -3 -43 14 -3 7 -22 39
-42 71 -35 53 -39 57 -51 40 -12 -17 -15 -16 -49 18 -22 22 -35 45 -36 64 -6
115 -15 138 -64 159 -25 10 -41 11 -63 3 -25 -8 -36 -7 -59 8 l-28 18 23 -36
c12 -20 22 -45 22 -55 -1 -18 -1 -18 -14 -1 -13 17 -15 17 -29 -4 -14 -20 -13
-23 19 -55 38 -38 39 -42 23 -98 -6 -23 -7 -41 -2 -45 5 -3 10 -28 12 -54 l2
-48 -55 5 c-33 3 -58 1 -62 -5 -8 -13 -2 -19 26 -24 34 -7 54 -45 30 -60 -5
-3 -10 3 -10 14 0 26 -9 27 -26 4 -9 -13 -9 -22 -2 -30 8 -10 6 -13 -7 -13
-13 0 -16 -6 -12 -26 4 -25 4 -26 -39 -19 -37 5 -44 3 -54 -15 -6 -11 -8 -29
-5 -40 3 -10 1 -21 -5 -25 -14 -9 -13 -32 5 -91 22 -74 71 -141 133 -182 50
-33 62 -37 122 -37 49 0 80 6 118 24 43 20 53 31 71 74 12 27 21 58 21 69 0
24 -24 70 -45 88 -32 27 -42 71 -37 176 2 55 -1 125 -7 156 -16 90 6 129 41
70 10 -16 53 -68 98 -115 88 -95 97 -121 64 -186 -11 -22 -14 -44 -9 -67 3
-19 1 -50 -4 -67 -6 -18 -12 -51 -14 -74 -1 -24 -8 -48 -15 -55 -7 -7 -12 -18
-12 -25 0 -7 -6 -13 -14 -13 -8 0 -17 -15 -20 -34 -8 -42 -64 -130 -91 -144
-11 -6 -56 -27 -100 -48 -44 -20 -93 -48 -110 -61 -16 -13 -45 -34 -64 -46
-46 -29 -48 -43 -12 -62 17 -8 31 -19 31 -24 0 -5 -17 -18 -37 -28 -51 -27
-56 -59 -11 -68 18 -4 38 -11 44 -17 18 -13 6 -44 -22 -57 -28 -12 -32 -39 -7
-48 22 -9 109 39 165 91 25 23 56 47 69 54 13 8 51 38 83 67 l60 54 7 76 c9
94 31 132 136 240 75 77 184 148 201 131 4 -4 7 -45 7 -90 0 -76 -3 -89 -37
-155 -23 -46 -32 -73 -25 -78 6 -4 3 -9 -9 -13 -16 -6 -18 -16 -16 -59 3 -34
8 -51 17 -51 7 0 15 -3 17 -7 7 -16 85 -62 138 -82 64 -24 60 -24 60 -11 0 6
-5 10 -10 10 -6 0 -21 10 -34 23 -21 21 -22 23 -4 41 16 17 18 17 24 3 3 -9
10 -14 15 -11 5 3 14 2 20 -2 8 -4 7 -9 -2 -15 -11 -7 -10 -11 6 -23 18 -14
20 -13 23 10 3 18 8 24 20 20 9 -3 29 -8 44 -12 15 -3 30 -14 33 -24 3 -9 15
-22 28 -29 12 -6 14 -9 5 -7 -23 7 -23 -7 0 -27 23 -21 36 -22 29 -2 -4 8 -2
17 2 20 5 3 12 -3 16 -13 6 -15 8 -15 18 -2 17 21 41 19 50 -5 7 -18 9 -18 18
-4 8 15 13 15 46 3 73 -25 89 -20 144 46 20 24 20 25 16 3 -3 -13 -1 -23 4
-23 5 0 9 3 9 8 0 4 10 12 22 17 27 12 44 55 33 81 -5 11 -10 30 -11 43 -2 19
1 22 18 18 20 -6 21 -3 15 61 -6 66 -39 173 -63 202 -7 8 -15 27 -19 42 -4 15
-13 32 -21 39 -8 6 -14 17 -14 23 0 18 -73 96 -90 96 -17 0 -80 72 -80 90 0 8
7 9 18 5 46 -19 52 -18 66 16 18 44 23 113 9 131 -24 29 -25 73 -2 102 21 26
26 28 73 22 160 -21 165 -21 251 23 49 25 94 41 115 41 28 0 44 8 74 39 48 49
61 99 40 161 -20 60 -28 67 -77 75 -71 11 -124 42 -131 75 -3 17 -9 43 -12 59
-7 33 -1 38 53 47 38 6 40 5 57 -30 9 -20 29 -44 44 -53 15 -9 39 -28 54 -41
l26 -24 18 33 c9 19 31 51 49 71 17 21 38 57 45 80 15 48 44 77 77 78 12 0 59
12 105 26 68 22 91 35 129 73 53 52 71 101 59 156 -10 44 -30 67 -95 110 -71
46 -113 65 -159 71 -23 3 -84 15 -136 26 -52 10 -129 22 -170 25 -41 3 -100
12 -130 20 -30 8 -107 16 -170 18 -63 2 -155 6 -205 8 -49 3 -117 1 -150 -3z
m343 -815 c2 -16 9 -36 14 -43 16 -19 5 -23 -33 -10 -19 6 -39 12 -46 14 -6 2
-16 12 -22 23 -15 28 12 53 53 49 26 -3 32 -8 34 -33z m-208 -765 c0 -5 -4
-10 -10 -10 -5 0 -10 5 -10 10 0 6 5 10 10 10 6 0 10 -4 10 -10z m100 -151 c0
-5 12 -28 26 -50 14 -23 23 -50 21 -62 l-4 -22 -8 23 c-8 25 -25 30 -25 7 0
-30 -40 -15 -70 27 -35 48 -34 64 4 60 18 -2 25 1 21 8 -4 6 -4 18 -1 27 5 12
9 13 21 3 8 -7 15 -16 15 -21z m-637 -253 c12 -9 14 -16 7 -21 -12 -7 -40 11
-40 26 0 13 12 11 33 -5z m57 -35 c0 -6 15 -11 33 -13 l32 -3 -37 -6 c-30 -4
-38 -1 -41 13 -3 10 -1 18 4 18 5 0 9 -4 9 -9z"/>
<path d="M2430 1727 c0 -2 7 -24 15 -48 9 -24 13 -54 10 -66 -3 -14 -1 -23 6
-23 21 0 87 -60 116 -106 15 -25 47 -56 71 -70 23 -14 42 -31 42 -38 0 -7 -9
-33 -19 -57 -50 -113 -28 -249 40 -249 29 0 39 37 23 88 -22 76 1 93 87 64 51
-17 56 -22 87 -82 27 -53 32 -74 32 -130 0 -74 16 -100 62 -100 28 0 38 16 38
57 0 15 12 46 26 70 22 38 24 48 15 76 -6 17 -20 40 -30 52 -11 11 -21 29 -24
40 -3 11 -3 -7 -1 -40 l5 -60 -20 24 c-12 13 -21 37 -21 55 0 50 -41 82 -121
94 -36 6 -81 9 -100 7 -63 -6 -89 16 -55 44 8 7 18 25 21 41 3 16 13 31 21 34
10 4 -2 23 -45 68 -33 35 -69 75 -81 91 -12 15 -27 27 -35 27 -7 0 -33 22 -57
48 -39 43 -108 100 -108 89z"/>
<path d="M1550 1166 c-38 -9 -45 -15 -45 -36 0 -32 50 -63 65 -40 10 15 31 82
27 86 -1 0 -22 -4 -47 -10z"/>
<path d="M1950 1052 c0 -5 8 -12 18 -16 9 -3 23 -9 30 -12 6 -3 12 -1 12 4 0
5 -8 12 -17 16 -10 3 -24 9 -30 12 -7 3 -13 1 -13 -4z"/>
<path d="M2020 1020 c-8 -16 -4 -25 27 -57 21 -21 53 -60 70 -86 29 -42 36
-47 60 -41 38 9 41 13 19 29 -29 22 -11 35 30 22 46 -14 64 6 34 38 -20 21
-18 56 3 83 14 18 -8 16 -23 -3 -6 -8 -10 -20 -8 -27 5 -14 -27 -48 -46 -48
-20 0 -42 30 -38 53 2 12 -1 18 -10 15 -7 -3 -13 -13 -13 -24 0 -14 -7 -18
-24 -16 -35 4 -51 20 -51 53 0 33 -15 38 -30 9z m150 -129 c0 -17 -18 -21 -24
-6 -3 9 0 15 9 15 8 0 15 -4 15 -9z"/>
<path d="M2355 980 c-3 -5 -1 -10 4 -10 6 0 11 5 11 10 0 6 -2 10 -4 10 -3 0
-8 -4 -11 -10z"/>
<path d="M1670 897 c0 -10 7 -34 15 -54 23 -54 20 -71 -8 -45 -12 11 -42 24
-67 28 -45 7 -45 7 -27 -14 18 -20 18 -20 -21 -18 -22 1 -47 8 -56 15 -13 11
-20 9 -43 -8 -14 -12 -33 -31 -40 -41 -18 -26 -39 -25 -46 0 -10 39 -28 22
-23 -21 6 -52 -8 -82 -35 -74 -18 6 -24 -4 -20 -29 1 -5 -3 -12 -10 -16 -8 -6
-8 -16 2 -43 11 -31 10 -39 -5 -61 -9 -14 -23 -26 -30 -26 -27 0 -48 -106 -28
-137 10 -16 109 -57 192 -78 72 -19 185 -16 233 6 29 13 32 36 3 31 -13 -2
-16 5 -16 36 0 25 -5 42 -14 45 -9 4 -12 14 -9 26 4 16 1 21 -13 21 -31 1 -54
24 -47 48 4 16 1 22 -11 22 -24 0 -19 19 8 32 18 8 28 24 37 62 6 28 18 54 25
59 7 4 11 14 8 21 -9 23 37 24 76 2 19 -11 63 -40 97 -63 70 -48 90 -55 73
-22 -15 26 -5 37 20 21 11 -7 22 -12 25 -12 3 0 5 28 5 61 0 56 -2 61 -19 56
-14 -3 -28 6 -50 34 -47 58 -41 67 27 42 25 -10 11 16 -25 44 -48 38 -69 45
-82 29 -7 -9 -6 -19 5 -35 37 -52 -11 -25 -77 44 -23 23 -29 26 -29 12z m150
-118 c0 -6 -4 -7 -10 -4 -5 3 -10 11 -10 16 0 6 5 7 10 4 6 -3 10 -11 10 -16z
m20 -109 c13 -11 21 -22 18 -25 -6 -6 -48 24 -48 36 0 13 4 12 30 -11z m-460
-110 l-7 -45 -2 55 c0 32 3 50 8 45 5 -6 5 -30 1 -55z m111 -49 c-8 -14 -17
-17 -38 -13 -23 5 -24 7 -8 10 11 2 24 8 30 13 16 16 26 10 16 -10z"/>
<path d="M2290 865 c0 -8 2 -15 4 -15 2 0 6 7 10 15 3 8 1 15 -4 15 -6 0 -10
-7 -10 -15z"/>
<path d="M2230 814 c-53 -42 -56 -47 -34 -65 14 -11 18 -10 35 11 10 14 19 30
19 37 0 6 7 19 16 28 31 31 8 24 -36 -11z"/>
<path d="M1945 760 c-3 -5 1 -24 10 -41 12 -23 20 -28 28 -20 17 17 27 13 27
-9 0 -11 5 -20 10 -20 22 0 8 40 -25 69 -40 34 -41 35 -50 21z"/>
<path d="M1950 655 c0 -15 18 -40 24 -34 3 3 -1 14 -9 25 -8 10 -14 15 -15 9z"/>
<path d="M2111 573 c7 -12 15 -20 18 -17 3 2 -3 12 -13 22 -17 16 -18 16 -5
-5z"/>
<path d="M1585 480 c3 -5 8 -10 11 -10 2 0 4 5 4 10 0 6 -5 10 -11 10 -5 0 -7
-4 -4 -10z"/>
<path d="M2184 339 c-3 -6 -1 -16 5 -22 8 -8 11 -5 11 11 0 24 -5 28 -16 11z"/>
<path d="M2365 320 c-3 -5 -1 -10 4 -10 6 0 11 5 11 10 0 6 -2 10 -4 10 -3 0
-8 -4 -11 -10z"/>
<path d="M2506 301 c-3 -5 -18 -12 -32 -15 -15 -4 -33 -13 -40 -21 -12 -12
-12 -15 3 -24 10 -6 13 -11 6 -11 -6 0 -18 -3 -27 -6 -11 -4 -16 -1 -16 10 0
20 -23 21 -39 2 -11 -13 -77 -26 -151 -29 -20 -1 -44 -11 -59 -24 -13 -13 -39
-27 -58 -32 -74 -21 -91 -33 -96 -71 -2 -19 -2 -38 2 -42 28 -31 602 61 704
113 24 13 77 59 77 68 0 8 -47 28 -85 37 -16 4 -36 11 -42 17 -9 6 -18 5 -28
-3 -17 -14 -135 -22 -135 -9 0 4 14 15 30 24 17 9 30 18 30 20 0 9 -39 5 -44
-4z m-116 -101 c0 -5 -4 -10 -10 -10 -5 0 -10 5 -10 10 0 6 5 10 10 10 6 0 10
-4 10 -10z"/>
<path d="M2155 250 c-11 -12 -25 -18 -36 -15 -9 3 -24 -1 -32 -10 -9 -8 -25
-15 -36 -15 -14 0 -21 -6 -21 -19 0 -29 17 -34 38 -13 10 10 36 22 58 25 38 6
64 28 64 54 0 19 -14 16 -35 -7z"/>
<path d="M2220 247 c0 -9 -6 -17 -12 -20 -7 -2 -10 -7 -7 -11 9 -10 60 16 56
28 -6 17 -37 19 -37 3z"/>
</g>
</svg>
